<svg xmlns:xlink="http://www.w3.org/1999/xlink" xmlns="http://www.w3.org/2000/svg" viewBox="0 0 370.13011848382854 67.2161880950878" height="67.2161880950878" width="370.13011848382854" style="width: 370.13px; height: 67.2162px; position: absolute; top: 50%; left: 50%; transform: translate(-50%, -50%) scale(0.3388); z-index: 0; cursor: pointer;"><defs id="SvgjsDefs1818"></defs><g id="SvgjsG1819" featurekey="symbolFeature-0" transform="matrix(0.5532051260557385,0,0,0.5532051260557385,-7.1822620418455285,6.4467948739442615)" fill="#000000"><g xmlns="http://www.w3.org/2000/svg"><polygon fill-rule="evenodd" clip-rule="evenodd" points="12.983,10.59 30.001,98.813 24.129,39.764 53.15,37.872 53.096,27.989    64.549,1 53.622,18.977  "></polygon><polygon fill-rule="evenodd" clip-rule="evenodd" points="59.389,54.548 64.549,1.007 55.809,40.723 36.197,41.768 37.767,62.23    30.001,98.813 42.058,58.914  "></polygon><polygon fill-rule="evenodd" clip-rule="evenodd" points="62.8,67.182 63.349,56.729 47.37,60.484 47.338,72.281 30.001,98.813    51.681,71.197  "></polygon><polygon fill-rule="evenodd" clip-rule="evenodd" points="65.711,62.394 80.552,57.663 82.061,45.131 66.162,47.226  "></polygon><polygon fill-rule="evenodd" clip-rule="evenodd" points="72.07,44.502 83.058,43.085 84.639,32.807 76.56,32.434 64.549,1    72.979,31.967  "></polygon><polygon fill-rule="evenodd" clip-rule="evenodd" points="87.413,31.294 88.669,21.788 79.125,19.094 64.549,1 79.032,23.437    78.61,30.437  "></polygon></g></g><g id="SvgjsG1820" featurekey="nameFeature-0" transform="matrix(2.3971533997225767,0,0,2.3971533997225767,62,-28.765836224463662)" fill="#FBC100"><path d="M5.12 33.4 c1.96 0.88 3.68 1.32 5.12 1.32 c0.72 0 1.16 -0.04 1.36 -0.16 c0.92 -0.24 1.56 -0.76 1.96 -1.56 l0.04 -0.08 c0.2 -0.36 0.28 -0.8 0.28 -1.36 c0 -0.28 -0.08 -0.6 -0.24 -1 l-0.08 -0.16 c-0.52 -1.08 -1.68 -1.8 -3.8 -2.48 l-0.4 -0.12 l-0.12 -0.04 c-3.24 -0.96 -5.32 -2.48 -6.32 -4.6 c-0.4 -0.8 -0.6 -1.68 -0.6 -2.64 c0 -1 0.2 -1.96 0.6 -2.96 l0.08 -0.16 c0.92 -1.84 2.4 -3.04 4.36 -3.64 c1.4 -0.2 2.2 -0.32 2.4 -0.32 c2.72 0 5.88 1.12 9.44 3.32 l0.76 -1.24 c-3.88 -2.36 -7.24 -3.52 -10.16 -3.52 c-1.16 0 -2.12 0.12 -2.8 0.4 c-2.36 0.64 -4.12 2.08 -5.28 4.36 l-0.12 0.28 c-0.48 1.16 -0.72 2.32 -0.72 3.48 c0 1.24 0.24 2.32 0.72 3.28 c1.24 2.48 3.64 4.24 7.24 5.32 l0.48 0.16 c1.64 0.52 2.6 1.08 2.96 1.72 l0.04 0.08 c0.08 0.12 0.12 0.28 0.12 0.48 c0 0.36 -0.04 0.6 -0.16 0.8 c-0.28 0.64 -0.96 0.96 -2.04 0.96 c-1.72 0 -4.2 -0.88 -6.12 -2.12 l-0.6 -0.36 l-3.52 5.68 l0.6 0.36 c2.84 1.92 6.6 3.12 9.64 3.12 c1 0 1.92 -0.12 2.76 -0.36 c2.36 -0.68 4.12 -2.16 5.28 -4.4 l0.16 -0.28 c0.48 -1.24 0.72 -2.4 0.72 -3.48 c0 -0.96 -0.32 -2.16 -0.92 -3.64 c-1.08 -2.16 -3.36 -3.8 -6.92 -4.92 l-0.56 -0.16 c-1.12 -0.36 -1.88 -0.72 -2.24 -1 c-0.48 -0.4 -0.76 -0.68 -0.88 -0.84 l-0.08 -0.44 c0 -0.4 0.08 -0.76 0.28 -1.04 c0.32 -0.6 0.64 -0.76 1.92 -0.76 c1.72 0 4.2 0.88 6.12 2.12 l0.6 0.36 l2.16 -3.44 l-0.64 -0.36 c-2.44 -1.6 -5.76 -2.72 -8.2 -2.72 c-1.08 0 -1.76 0.08 -2.12 0.28 c-1.64 0.48 -2.88 1.52 -3.68 3.08 c-0.36 0.68 -0.52 1.48 -0.52 2.48 c0 0.76 0.16 1.48 0.48 2.16 c0.84 1.8 2.72 3.12 5.64 4 l0.52 0.16 l1.08 0.4 c0.6 0.24 1.24 0.56 1.96 0.96 c1.28 0.76 1.92 1.84 1.92 3.28 c0 0.8 -0.2 1.56 -0.56 2.24 c-0.84 1.48 -2.28 2.24 -4.28 2.24 c-1.36 0 -3.28 -0.52 -5.76 -1.52 l-0.68 1.16 l-0.04 0.08 c2.28 1.16 4.44 1.72 6.52 1.72 c1.16 0 2.24 -0.24 3.2 -0.72 c1.88 -0.92 3.04 -2.84 3.04 -5.24 c0 -3.8 -2.92 -4.92 -6 -6 l-0.52 -0.16 c-2.52 -0.76 -4.08 -1.8 -4.72 -3.2 c-0.24 -0.48 -0.36 -1 -0.36 -1.6 c0 -0.76 0.12 -1.36 0.4 -1.88 c0.64 -1.16 1.56 -1.92 2.76 -2.28 l1.6 -0.2 c2.12 0 4.44 0.72 6.96 2.12 l-0.64 1 c-2.6 -1.28 -4.68 -1.92 -6.2 -1.92 c-0.76 0 -1.2 0.04 -1.4 0.16 c-0.88 0.24 -1.52 0.76 -1.96 1.6 l-0.04 0.08 c-0.2 0.36 -0.28 0.84 -0.28 1.44 c0 0.44 0.08 0.76 0.2 0.96 c0.52 1.08 1.88 1.96 4.04 2.6 l0.52 0.16 l1 0.32 c0.12 0.04 0.76 0.32 1.92 0.88 c1.56 0.88 2.68 2 3.32 3.32 c0.4 0.8 0.6 1.68 0.6 2.64 c0 1.16 -0.2 2.16 -0.64 3 l-0.08 0.16 c-0.92 1.84 -2.4 3.04 -4.36 3.64 c-1.4 0.2 -2.2 0.32 -2.4 0.32 c-2.04 0 -4.68 -0.76 -7.12 -1.92 l-1.12 -0.6 l2 -3.24 z M27.724999999999998 12 l6.96 0 l0 9.24 l-1.48 0 l0 -7.76 l-4.04 0 l0 25.04 l4.04 0 l0 -7.72 l1.48 0 l0 9.2 l-6.96 0 l0 -28 z M30.485 14.64 l1.44 0 l0 7.84 l12.2 0 l0 -10.48 l1.4 0 l0 11.88 l-15.04 0 l0 -9.24 z M49.80499999999999 13.48 l-1.36 0 l0 10.52 l-1.44 0 l0 -12 l4.2 0 l0 28 l-1.4 0 l0 -26.52 z M44.125 29.52 l-12.2 0 l0 8.04 l-1.48 0 l0 -9.52 l15.08 0 l0 10.48 l1.48 0 l0 -11.8 l-16.56 0 l0 -1.4 l18 0 l0 14.68 l-4.32 0 l0 -10.48 z M59.65 12.079999999999998 l1.44 0 l0 26.48 l15.32 0 l0 -4 l-11.28 0 l0 -3.84 l1.44 0 l0 2.4 l11.28 0 l0 6.88 l-18.2 0 l0 -27.92 z M62.37 12.079999999999998 l15.28 0 l0 6.84 l-9.6 0 l0 -1.44 l8.16 0 l0 -3.96 l-12.4 0 l0 11.56 l9.32 0 l0 1.44 l-10.76 0 l0 -14.44 z M62.37 27.8 l12.16 0 l0 -4 l-9.4 0 l0 -9.08 l9.68 0 l0 1.44 l-8.24 0 l0 6.2 l9.4 0 l0 6.88 l-12.16 0 l0 6.64 l11.2 0 l0 1.44 l-12.64 0 l0 -9.52 z M87.735 12 l4.2 0 l0 25.32 l-1.44 0 l0 -23.88 l-1.32 0 l0 25.12 l4.04 0 l0 -26.56 l1.44 0 l0 28 l-6.92 0 l0 -28 z M106.49999999999999 38.6 l0 -26.6 l-1.44 0 l0 28.04 l7 -0.04 l0 -11.44 l10.96 -13.88 l-1.84 0 l-10.6 13.36 l0 10.56 l-4.08 0 z M110.53999999999999 21.28 l1.48 -1.84 l0 -7.44 l-4.24 0 l0 12.84 l1.44 -1.84 l0 -9.52 l1.32 0 l0 7.8 z M128.5 12 l-8.84 0 l-11.88 15.24 l0 10.32 l1.44 0 l0 -9.84 l11.12 -14.24 l5.2 0 l-11.28 14.36 l7.2 9.72 l1.8 0 l-7.16 -9.72 z M125.66 38.6 l-5.08 0 l-7.16 -9.68 l0 2.4 l6.44 8.68 l8.68 0 l-9.8 -13.16 l-0.92 1.16 z" fill="#FBC100"></path></g></svg>